inDegrees=yes
name=ik_S55_A06_T03
DataType=double
version=3
OpenSimVersion=4.3-2021-08-27-4bc7ad9
endheader
time	pelvis_tilt	pelvis_list	pelvis_rotation	pelvis_tx	pelvis_ty	pelvis_tz	hip_flexion_r	hip_adduction_r	hip_rotation_r	knee_angle_r	knee_angle_r_beta	ankle_angle_r	subtalar_angle_r	mtp_angle_r	hip_flexion_l	hip_adduction_l	hip_rotation_l	knee_angle_l	knee_angle_l_beta	ankle_angle_l	subtalar_angle_l	mtp_angle_l	lumbar_extension	lumbar_bending	lumbar_rotation	arm_flex_r	arm_add_r	arm_rot_r	elbow_flex_r	pro_sup_r	wrist_flex_r	wrist_dev_r	arm_flex_l	arm_add_l	arm_rot_l	elbow_flex_l	pro_sup_l	wrist_flex_l	wrist_dev_l
21.49999999999963	-4.926519087037946	-0.9471971072377858	27.78411972667114	0	0.9399999999999999	0	43.44369052528388	-10.11800837397267	-10.10753161511	53.66471517701793	0.9366259719839345	0	0	0	43.44369052528388	-10.11800837397267	-10.10753161511	53.66471517701793	0.9366259719839345	0	0	0	-3.144717948837628	-0.4123758898731866	-5.08468359434752	17.6721731063575	-17.95907442307947	-7.395988964797027	58.2974990950099	118.3698433049506	0	0	26.67981603261714	-31.18012581466784	-12.27444232821441	81.62901233119109	104.9768330168165	0	0
21.51999999999963	-4.929001753319612	-0.943098436081905	27.75063236892825	0	0.9399999999999999	0	43.44381105229042	-10.11797735383811	-10.107513309512	53.66478626403259	0.9366272126863956	0	0	0	43.44381105229042	-10.11797735383811	-10.107513309512	53.66478626403259	0.9366272126863956	0	0	0	-3.144964821041158	-0.4081685826255971	-5.072522202603086	17.67340822353764	-17.96607923538617	-7.300601069352816	58.30831371399898	118.3636866027214	0	0	26.63843331704989	-31.13847852399333	-12.09149050155987	81.59525705957351	104.9574539165053	0	0
21.53999999999963	-4.931647509995575	-0.9529627802387453	27.77085584331236	0	0.9399999999999999	0	43.45013060077883	-10.11631457481307	-10.10653866456928	53.66841458505903	0.9366905388346265	0	0	0	43.45013060077883	-10.11631457481307	-10.10653866456928	53.66841458505903	0.9366905388346265	0	0	0	-3.156518258051348	-0.4108846140870969	-5.049430937122239	17.66211523110134	-17.98006639231799	-7.285291887437118	58.34602123427649	118.2703468718961	0	0	26.70157261059908	-31.13115109501884	-11.94250077891521	81.44868045089798	104.9164915683622	0	0
21.55999999999963	-4.96416000053694	-0.9608668747256894	27.79385512143676	0	0.9399999999999999	0	43.45051142769662	-10.11621487053025	-10.10648006941756	53.66863386324448	0.9366943659609404	0	0	0	43.45051142769662	-10.11621487053025	-10.10648006941756	53.66863386324448	0.9366943659609404	0	0	0	-3.18936155190596	-0.4020014123052452	-5.054657072108696	17.70923570646281	-18.01204559552149	-7.252697348785357	58.38133948713796	118.2522851916835	0	0	26.71109353468726	-31.15893693280605	-12.0142981010488	81.41686042726501	104.7219279801523	0	0
21.57999999999963	-4.967943560163375	-0.9612885651392017	27.82781923123741	0	0.9399999999999999	0	43.45489423808058	-10.11523184375081	-10.10585958369055	53.67121256543226	0.9367393728045453	0	0	0	43.45489423808058	-10.11523184375081	-10.10585958369055	53.67121256543226	0.9367393728045453	0	0	0	-3.19620260563864	-0.3969880522081121	-5.042058994362982	17.68848311754763	-18.03957093698196	-7.278807571049572	58.40568657473976	118.2099947777148	0	0	26.67380321902733	-31.20295672808189	-12.08791173519636	81.41239276440922	104.597778461609	0	0
21.59999999999963	-4.986689523602661	-0.9550938543883698	27.87513996765464	0	0.9399999999999999	0	43.45522803026315	-10.1151450700335	-10.10580842400234	53.67140512032005	0.9367427335213281	0	0	0	43.45522803026315	-10.1151450700335	-10.10580842400234	53.67140512032005	0.9367427335213281	0	0	0	-3.210003253927534	-0.3831411488338639	-5.030117128098926	17.67868395982864	-18.06577810125478	-7.315160436233951	58.42980767568563	118.2181567217439	0	0	26.64425016504331	-31.23535829732447	-12.12360451497051	81.43738941308918	104.7739446250281	0	0
21.61999999999963	-4.979173798797493	-0.9601615723383575	27.88639848120291	0	0.9399999999999999	0	43.45563866030614	-10.11503903972675	-10.10574576041384	53.67164336399307	0.9367468916578444	0	0	0	43.45563866030614	-10.11503903972675	-10.10574576041384	53.67164336399307	0.9367468916578444	0	0	0	-3.206257384242952	-0.3899602458554766	-5.041886150372867	17.64596943401899	-18.04980214114873	-7.288830134262959	58.47469517424419	118.2088885939748	0	0	26.55017196071414	-31.29835804818789	-12.12931345369313	81.49942089353921	104.9722003194909	0	0
21.63999999999963	-4.996790850877744	-0.9526276696018519	27.89691869376356	0	0.9399999999999999	0	43.45576564379245	-10.11500677217791	-10.10572658435776	53.67171810338598	0.9367481961063316	0	0	0	43.45576564379245	-10.11500677217791	-10.10572658435776	53.67171810338598	0.9367481961063316	0	0	0	-3.218360980453415	-0.3752994818293262	-5.035158046948513	17.65648258172053	-18.08018570783155	-7.267861877139761	58.4862834028924	118.2087856306189	0	0	26.50500422348384	-31.32955602386243	-12.06014251725848	81.5425815400138	104.9790446414825	0	0
21.65999999999963	-4.997458634742389	-0.9521382543293845	27.9070294418691	0	0.9399999999999999	0	43.45616909679674	-10.11490239192834	-10.10566492816665	53.67195159781787	0.9367522713529531	0	0	0	43.45616909679674	-10.11490239192834	-10.10566492816665	53.67195159781787	0.9367522713529531	0	0	0	-3.218469795284512	-0.3767560333256185	-4.993586066312981	17.62373607886846	-18.08195773443916	-7.309735193705903	58.49928583667295	118.193532693101	0	0	26.41311130158783	-31.29322202793404	-11.86163363299627	81.70585865515672	104.9878970349481	0	0
21.67999999999963	-5.023012381194826	-0.9633099461584831	27.8973395252047	0	0.9399999999999999	0	43.46308560954699	-10.11322992823584	-10.1046476534476	53.67598965386622	0.9368227487263771	0	0	0	43.46308560954699	-10.11322992823584	-10.1046476534476	53.67598965386622	0.9368227487263771	0	0	0	-3.251483613634283	-0.3689272270278118	-4.973575845580408	17.66197907385474	-18.09746381003626	-7.304739807645043	58.57154056860178	118.0967482707195	0	0	26.4886311812995	-31.2656016136627	-11.85236418353524	81.74710398572736	104.8832436793025	0	0
21.69999999999963	-5.007285279712467	-0.9591905987311244	27.85941044067649	0	0.9399999999999999	0	43.46355019140184	-10.11311081852028	-10.10457696366523	53.67625849913294	0.9368274409614596	0	0	0	43.46355019140184	-10.11311081852028	-10.10457696366523	53.67625849913294	0.9368274409614596	0	0	0	-3.23491497214773	-0.3767825085646214	-4.897931802228827	17.63737149363256	-18.0638850114099	-7.294416141982521	58.4983725014101	118.157275856207	0	0	26.06234823943298	-31.17055841876663	-11.40956603830032	82.17775257929299	104.7468330392949	0	0
21.71999999999963	-5.016256543659354	-0.9672967502280171	27.81710247591058	0	0.9399999999999999	0	43.46406807470651	-10.11297846366027	-10.10449831796026	53.67655887952792	0.9368326835883606	0	0	0	43.46406807470651	-10.11297846366027	-10.10449831796026	53.67655887952792	0.9368326835883606	0	0	0	-3.246815622692266	-0.3804645307466611	-4.877245917077994	17.67125052644927	-18.0134539822613	-7.269044111825788	58.48116584623536	118.1969400637944	0	0	25.69249649293127	-31.12667942576191	-11.35720002685237	82.72990026845483	105.0729367595924	0	0
21.73999999999963	-5.033955320934768	-0.9814818361251596	27.75607910866105	0	0.9399999999999999	0	43.46501706046809	-10.11273813180642	-10.10435505131717	53.67711364881053	0.936842366138931	0	0	0	43.46501706046809	-10.11273813180642	-10.10435505131717	53.67711364881053	0.936842366138931	0	0	0	-3.269828859456209	-0.3837032482449798	-4.870988123496722	17.74347665826243	-17.99381967033858	-7.215069955860709	58.46938458623514	118.1901225876496	0	0	25.1176073669183	-31.11597774337666	-11.54186415366357	84.13247021739734	106.7918993911371	0	0
21.75999999999962	-5.050270398364928	-1.016526843404306	27.74883096361913	0	0.9399999999999999	0	43.46558604936652	-10.11259545666857	-10.10426969701145	53.67744903190342	0.9368482196781575	0	0	0	43.46558604936652	-10.11259545666857	-10.10426969701145	53.67744903190342	0.9368482196781575	0	0	0	-3.302469811706486	-0.4026498121581504	-4.930395148409232	17.82931733256397	-17.91107589057825	-7.30600407012159	58.41727980505495	118.245109272011	0	0	24.30242348673459	-31.19465898649214	-11.97795449259307	85.56487399018364	108.0786085161536	0	0
21.77999999999962	-5.0947158138372	-1.039927542195341	27.79787890988863	0	0.9399999999999999	0	43.46614340168211	-10.11245434953505	-10.10418553823009	53.67777431004099	0.9368538968526428	0	0	0	43.46614340168211	-10.11245434953505	-10.10418553823009	53.67777431004099	0.9368538968526428	0	0	0	-3.356824581733436	-0.3904852825173004	-5.104648040620065	17.96955274743385	-17.88556734456723	-7.291704232416092	58.40232453780573	118.2575817117972	0	0	23.1310535724588	-31.26444216964977	-12.83179777067221	86.96824562349107	109.0629786353307	0	0
21.79999999999962	-5.143962229759804	-1.018051810102005	27.9635023704563	0	0.9399999999999999	0	43.46697126748936	-10.11224397236059	-10.10406019604415	53.67825525287187	0.9368622908885555	0	0	0	43.46697126748936	-10.11224397236059	-10.10406019604415	53.67825525287187	0.9368622908885555	0	0	0	-3.394771191451234	-0.3270128095956425	-5.385509392275374	18.06084333023354	-17.96720079505505	-7.218147630338328	58.39370857150214	118.260235543665	0	0	21.75041234590197	-31.27759785565906	-13.97270766803289	88.96341996433847	111.117326112574	0	0
21.81999999999962	-5.152787902786838	-1.039633585641756	28.16182991927948	0	0.9399999999999999	0	43.46773428980662	-10.11205019298882	-10.10394469326516	53.67869830206968	0.9368700235558055	0	0	0	43.46773428980662	-10.11205019298882	-10.10394469326516	53.67869830206968	0.9368700235558055	0	0	0	-3.414991347757394	-0.3234912685469569	-5.608423359737406	18.04442642398979	-17.91760134610092	-7.233461713879155	58.45289063901313	118.220183212614	0	0	20.34675725047779	-31.42374862317711	-14.8644797288829	91.08971323774617	112.9798724041128	0	0
21.83999999999962	-5.156881721960204	-1.038697157862965	28.30849777836906	0	0.9399999999999999	0	43.46860708583637	-10.11182836637872	-10.10381247975047	53.67920421677455	0.9368788534331398	0	0	0	43.46860708583637	-10.11182836637872	-10.10381247975047	53.67920421677455	0.9368788534331398	0	0	0	-3.421273822734218	-0.308731994785272	-5.757092334629262	17.99064702592129	-17.91310601813703	-7.190963270719656	58.515079364633	118.2053814699498	0	0	18.95323633362508	-31.59317127636962	-15.47767091523079	93.27884104968822	114.2151094502244	0	0
21.85999999999962	-5.139602390071445	-1.041090070758464	28.39081488380955	0	0.9399999999999999	0	43.46958100229576	-10.11158086815678	-10.10366492856851	53.6797682254501	0.936888697241538	0	0	0	43.46958100229576	-10.11158086815678	-10.10366492856851	53.6797682254501	0.936888697241538	0	0	0	-3.409740234437946	-0.3152747850497891	-5.806511861735395	17.88850585902297	-17.8881861795333	-7.209681770650413	58.54982105845644	118.1787872055853	0	0	17.4909164979183	-31.79400711515423	-15.80976390063591	95.47505913033741	114.5260278161048	0	0
21.87999999999962	-5.154868705682202	-1.055246537058441	28.34738608303707	0	0.9399999999999999	0	43.47045745949249	-10.11135827306023	-10.10353216345283	53.68027546491791	0.9368975502403473	0	0	0	43.47045745949249	-10.11135827306023	-10.10353216345283	53.68027546491791	0.9368975502403473	0	0	0	-3.429966820338828	-0.3229190578459405	-5.758755358445003	17.88499796534973	-17.88465716369191	-7.257993966346186	58.60411817173267	118.15903531085	0	0	16.16424691803781	-31.91719165868333	-15.89780662324074	97.42972301633598	114.2275659571699	0	0
